<?xml version="1.0" encoding="UTF-8" standalone="no"?>
<svg
   xmlns:dc="http://purl.org/dc/elements/1.1/"
   xmlns:cc="http://creativecommons.org/ns#"
   xmlns:rdf="http://www.w3.org/1999/02/22-rdf-syntax-ns#"
   xmlns:svg="http://www.w3.org/2000/svg"
   xmlns="http://www.w3.org/2000/svg"
   xmlns:sodipodi="http://sodipodi.sourceforge.net/DTD/sodipodi-0.dtd"
   xmlns:inkscape="http://www.inkscape.org/namespaces/inkscape"
   width="210mm"
   height="297mm"
   viewBox="0 0 210 297"
   version="1.1"
   id="svg8"
   inkscape:version="1.0.1 (3bc2e813f5, 2020-09-07)"
   sodipodi:docname="unknown.svg">
  <defs
     id="defs2" />
  <sodipodi:namedview
     id="base"
     pagecolor="#ffffff"
     bordercolor="#666666"
     borderopacity="1.0"
     inkscape:pageopacity="0.0"
     inkscape:pageshadow="2"
     inkscape:zoom="0.5"
     inkscape:cx="304.57156"
     inkscape:cy="454.41932"
     inkscape:document-units="mm"
     inkscape:current-layer="layer1"
     inkscape:document-rotation="0"
     showgrid="false"
     showguides="true"
     inkscape:guide-bbox="true"
     inkscape:window-width="1920"
     inkscape:window-height="1017"
     inkscape:window-x="-8"
     inkscape:window-y="-8"
     inkscape:window-maximized="1">
    <sodipodi:guide
       position="140.22916,119.72917"
       orientation="1,0"
       id="guide16" />
    <sodipodi:guide
       position="97.895831,21.077381"
       orientation="0,-1"
       id="guide18" />
    <sodipodi:guide
       position="91.470236,116.32738"
       orientation="1,0"
       id="guide20" />
    <sodipodi:guide
       position="119.0625,282.25894"
       orientation="0,-1"
       id="guide58" />
    <sodipodi:guide
       position="181.42857,257.31251"
       orientation="1,0"
       id="guide60" />
    <sodipodi:guide
       position="11.339285,257.69048"
       orientation="1,0"
       id="guide62" />
    <sodipodi:guide
       position="45.735118,187.38691"
       orientation="0,-1"
       id="guide64" />
  </sodipodi:namedview>
  <metadata
     id="metadata5">
    <rdf:RDF>
      <cc:Work
         rdf:about="">
        <dc:format>image/svg+xml</dc:format>
        <dc:type
           rdf:resource="http://purl.org/dc/dcmitype/StillImage" />
        <dc:title />
      </cc:Work>
    </rdf:RDF>
  </metadata>
  <g
     inkscape:label="Layer 1"
     inkscape:groupmode="layer"
     id="layer1">
    <rect
       style="fill:#000000;stroke-width:0.264583"
       id="rect24"
       width="48.758923"
       height="48.758923"
       x="91.47023"
       y="227.1637" />
    <rect
       style="fill:#000000;stroke-width:0.264583"
       id="rect26"
       width="48.758923"
       height="102.43154"
       x="91.470245"
       y="109.61309" />
    <path
       style="fill:none;stroke:#000000;stroke-width:0.264583px;stroke-linecap:butt;stroke-linejoin:miter;stroke-opacity:1"
       d="m 140.22916,109.61309 c 0,0 71.05951,-44.979185 0,-94.87203 C 69.169642,-35.151785 -26.080358,63.122013 11.339285,109.61309"
       id="path68" />
    <path
       style="fill:none;stroke:#000000;stroke-width:0.134502px;stroke-linecap:butt;stroke-linejoin:miter;stroke-opacity:1"
       d="m 91.474653,109.61309 c 0,0 25.831477,-31.975768 0,-67.444665 C 65.643172,6.6995276 31.017991,76.562515 44.620741,109.61309"
       id="path68-9" />
    <path
       style="fill:none;stroke:#000000;stroke-width:0.228691px;stroke-linecap:butt;stroke-linejoin:miter;stroke-opacity:1"
       d="m 11.236102,109.58176 33.384772,9.4e-4"
       id="path104" />
    <path
       style="fill:#000000;stroke-width:2"
       d="M 363.57126,-1.4726524 C 264.56382,0.07932776 171.4741,50.669031 102.75947,119.70395 56.871153,167.18539 18.880086,226.13226 8.1103216,292.20312 3.466682,328.6131 6.6151754,367.27486 26.383759,399.13282 c 6.261929,10.1031 12.448862,24.53382 27.039062,20.28578 38.05714,-0.49876 76.499109,1.00106 114.317889,-0.7356 11.00284,-5.95328 -0.50111,-19.39002 -0.73977,-28.95254 -11.29752,-71.62266 6.62519,-145.10014 44.6836,-205.66796 17.676,-26.16716 42.29436,-55.11708 76.5586,-55.40234 30.30894,1.33983 49.85652,27.34741 63.92186,50.62109 34.67086,55.19563 41.26894,126.70579 13.8711,186.47265 -5.71778,15.51522 -14.58234,29.581 -22.4336,43.90626 0.94786,14.05642 18.80518,7.45176 28.0969,9.33424 53.37492,0.3278 107.01958,1.14942 160.22696,-0.19896 35.02646,-23.33624 65.91738,-54.02176 90.11364,-88.6431 32.26872,-45.61578 42.95242,-107.91826 19.04298,-159.61718 C 615.52366,114.33166 566.07006,73.215079 515.31344,40.313357 470.05956,12.321631 416.745,-2.1682706 363.57126,-1.4726524 Z"
       id="path130"
       transform="scale(0.26458333)" />
  </g>
</svg>
